<svg xmlns="http://www.w3.org/2000/svg" width="1280" height="560" viewBox="0 0 1280 560" fill="none" role="img" aria-label="The same assertion against a misconfigured and a corrected bond">
<title>The same assertion against a misconfigured and a corrected bond</title>
<style>
  .sans { font-family: -apple-system, BlinkMacSystemFont, 'Segoe UI', 'Helvetica Neue', Helvetica, Arial, sans-serif; }
  .mono { font-family: ui-monospace, SFMono-Regular, 'SF Mono', Menlo, Consolas, 'Liberation Mono', monospace; }
  .serif { font-family: 'Iowan Old Style', 'Palatino Linotype', Palatino, 'Book Antiqua', Georgia, serif; }
  .flow { stroke-dasharray: 3 7; animation: flow 1.4s linear infinite; }
  @keyframes flow { to { stroke-dashoffset: -20; } }
  @media (prefers-reduced-motion: reduce) { * { animation: none !important; } }</style>

<defs>
  <clipPath id="ba-frame"><rect width="1280" height="560" rx="20"/></clipPath>
  <pattern id="ba-dots" width="22" height="22" patternUnits="userSpaceOnUse">
    <circle cx="1.5" cy="1.5" r="1.1" fill="#ffffff" fill-opacity="0.07"/>
  </pattern>
  <radialGradient id="ba-fade" cx="50%" cy="50%" r="65%">
    <stop offset="0" stop-color="#fff"/><stop offset="1" stop-color="#fff" stop-opacity="0"/>
  </radialGradient>
  <mask id="ba-mask"><rect width="1280" height="560" fill="url(#ba-fade)"/></mask>
  <radialGradient id="ba-glow">
    <stop offset="0" stop-color="#734AF9" stop-opacity="0.32"/><stop offset="1" stop-color="#734AF9" stop-opacity="0"/>
  </radialGradient>
</defs>
<g clip-path="url(#ba-frame)">
  <rect width="1280" height="560" fill="#0c0a09"/>
  <rect width="1280" height="560" fill="url(#ba-dots)" mask="url(#ba-mask)"/>
  
</g>
<rect x="0.5" y="0.5" width="1279" height="559" rx="19.5" stroke="#292524"/>
<text x="640" y="44" text-anchor="middle" class="mono" font-size="11.5" letter-spacing="2.4" fill="#77706a">SAME ASSERTION · SAME ACTOR · SAME ACTION</text>
<path d="M640 114V140M640 140H352Q340 140 340 152V178M640 140H928Q940 140 940 152V178" stroke="#3b3632" stroke-width="1.5"/>
<path d="M640 114V140M640 140H352Q340 140 340 152V178M640 140H928Q940 140 940 152V178" stroke="#9277ff" stroke-width="1.5" class="flow"/>
<rect x="320" y="62" width="640" height="52" rx="26" fill="#151311" stroke="#3b3632"/>
<text x="640" y="93" text-anchor="middle" class="mono" font-size="14" fill="#a8a29e" xml:space="preserve"><tspan fill="#faf9f6" font-weight="600">reject-unverified-transfer</tspan><tspan fill="#77706a">  ·  </tspan>actor <tspan fill="#faf9f6">attacker</tspan><tspan fill="#77706a">  ·  </tspan>expect <tspan fill="#9277ff">mustRevert</tspan></text>

<clipPath id="ba-a"><rect x="60" y="178" width="560" height="350" rx="16"/></clipPath>
<rect x="60" y="178" width="560" height="350" rx="16" fill="#151311" stroke="#292524"/>
<rect x="60" y="178" width="560" height="3" fill="#f26d57" clip-path="url(#ba-a)"/>
<text x="92" y="222" class="mono" font-size="11.5" letter-spacing="2" fill="#77706a">CONFIGURATION A</text>
<text x="588" y="222" text-anchor="end" class="mono" font-size="12" fill="#a8a29e">0xeff72A…c9E03</text>
<text x="92" y="264" class="sans" font-size="28" font-weight="600" letter-spacing="-0.5" fill="#faf9f6">Whitelist disabled</text>
<line x1="92" y1="288" x2="588" y2="288" stroke="#292524"/>
<text x="92" y="328" class="mono" font-size="11.5" letter-spacing="1.6" fill="#77706a">DECLARED</text><text x="228" y="328" class="mono" font-size="17" fill="#faf9f6">mustRevert</text>
<text x="92" y="372" class="mono" font-size="11.5" letter-spacing="1.6" fill="#77706a">OBSERVED</text><text x="228" y="372" class="mono" font-size="17" fill="#f26d57">SUCCESS</text>
<text x="92" y="416" class="mono" font-size="11.5" letter-spacing="1.6" fill="#77706a">TX HASH</text><text x="228" y="416" class="mono" font-size="17" fill="#a8a29e">0xdcf971…8877c</text>
<line x1="92" y1="446" x2="588" y2="446" stroke="#292524"/>

<rect x="92" y="470" width="116" height="30" rx="15" fill="#f26d57" fill-opacity="0.12" stroke="#f26d57" stroke-opacity="0.45"/>
<path d="M107 480.5l9 9M116 480.5l-9 9" stroke="#f26d57" stroke-width="2" stroke-linecap="round"/>
<text x="126" y="490" class="mono" font-size="13" font-weight="700" letter-spacing="1" fill="#f26d57">FINDING</text>
<text x="228" y="490" class="mono" font-size="12.5" fill="#a8a29e">chain-assertion:reject-unverified-transfer</text>

<clipPath id="ba-b"><rect x="660" y="178" width="560" height="350" rx="16"/></clipPath>
<rect x="660" y="178" width="560" height="350" rx="16" fill="#151311" stroke="#292524"/>
<rect x="660" y="178" width="560" height="3" fill="#4cc38a" clip-path="url(#ba-b)"/>
<text x="692" y="222" class="mono" font-size="11.5" letter-spacing="2" fill="#77706a">CONFIGURATION B</text>
<text x="1188" y="222" text-anchor="end" class="mono" font-size="12" fill="#a8a29e">0x19CD78…606B8</text>
<text x="692" y="264" class="sans" font-size="28" font-weight="600" letter-spacing="-0.5" fill="#faf9f6">Whitelist enabled</text>
<line x1="692" y1="288" x2="1188" y2="288" stroke="#292524"/>
<text x="692" y="328" class="mono" font-size="11.5" letter-spacing="1.6" fill="#77706a">DECLARED</text><text x="828" y="328" class="mono" font-size="17" fill="#faf9f6">mustRevert</text>
<text x="692" y="372" class="mono" font-size="11.5" letter-spacing="1.6" fill="#77706a">OBSERVED</text><text x="828" y="372" class="mono" font-size="17" fill="#faf9f6">CONTRACT_REVERT_EXECUTED</text>
<text x="692" y="416" class="mono" font-size="11.5" letter-spacing="1.6" fill="#77706a">TX HASH</text><text x="828" y="416" class="mono" font-size="17" fill="#a8a29e">0x513432…91f6a</text>
<line x1="692" y1="446" x2="1188" y2="446" stroke="#292524"/>

<rect x="692" y="470" width="84" height="30" rx="15" fill="#4cc38a" fill-opacity="0.12" stroke="#4cc38a" stroke-opacity="0.45"/>
<path d="M706 486l3.5 3.5L717 481" stroke="#4cc38a" stroke-width="2" stroke-linecap="round" stroke-linejoin="round"/>
<text x="726" y="490" class="mono" font-size="13" font-weight="700" letter-spacing="1" fill="#4cc38a">PASS</text>
<text x="796" y="490" class="sans" font-size="14" fill="#a8a29e">Assertion satisfied — no finding emitted</text>
</svg>
